<svg width="15" height="16" viewBox="0 0 15 16" fill="none" xmlns="http://www.w3.org/2000/svg">
<path d="M3.17438 12.6644H4.67438L9.58017 7.75863L8.08017 6.25863L3.17438 11.1644V12.6644ZM10.2885 7.05029L11.0385 6.30029C11.1496 6.18918 11.2052 6.07113 11.2052 5.94613C11.2052 5.82113 11.1496 5.70307 11.0385 5.59196L10.2468 4.80029C10.1357 4.68918 10.0177 4.63363 9.89267 4.63363C9.76767 4.63363 9.64961 4.68918 9.5385 4.80029L8.7885 5.55029L10.2885 7.05029ZM1.72919 15.8388C1.25366 15.8388 0.846583 15.6695 0.507958 15.3308C0.16932 14.9922 0 14.5851 0 14.1096V3.22919C0 2.75366 0.16932 2.34658 0.507958 2.00796C0.846583 1.66932 1.25366 1.5 1.72919 1.5H5.12727C5.26163 1.06281 5.5142 0.703507 5.88498 0.422104C6.25574 0.140701 6.68388 0 7.1694 0C7.65491 0 8.08305 0.140701 8.45381 0.422104C8.82459 0.703507 9.07716 1.06281 9.21152 1.5H12.6096C13.0851 1.5 13.4922 1.66932 13.8308 2.00796C14.1695 2.34658 14.3388 2.75366 14.3388 3.22919V14.1096C14.3388 14.5851 14.1695 14.9922 13.8308 15.3308C13.4922 15.6695 13.0851 15.8388 12.6096 15.8388H1.72919ZM1.72919 14.1096H12.6096V3.22919H1.72919V14.1096ZM7.1694 2.70925C7.32535 2.70925 7.45432 2.65826 7.55629 2.55629C7.65826 2.45432 7.70925 2.32535 7.70925 2.1694C7.70925 2.01344 7.65826 1.88447 7.55629 1.7825C7.45432 1.68053 7.32535 1.62954 7.1694 1.62954C7.01344 1.62954 6.88447 1.68053 6.7825 1.7825C6.68053 1.88447 6.62954 2.01344 6.62954 2.1694C6.62954 2.32535 6.68053 2.45432 6.7825 2.55629C6.88447 2.65826 7.01344 2.70925 7.1694 2.70925Z" fill="#1C4980"/>
</svg>
