<svg width="17" height="17" viewBox="0 0 17 17" fill="none" xmlns="http://www.w3.org/2000/svg">
<path d="M9.91352 10.5847C10.1496 10.5847 10.3475 10.5048 10.5073 10.3451C10.667 10.1854 10.7469 9.98749 10.7469 9.75138C10.7469 9.51526 10.667 9.31735 10.5073 9.15763C10.3475 8.9979 10.1496 8.91804 9.91352 8.91804C9.67741 8.91804 9.47949 8.9979 9.31977 9.15763C9.16005 9.31735 9.08019 9.51526 9.08019 9.75138C9.08019 9.98749 9.16005 10.1854 9.31977 10.3451C9.47949 10.5048 9.67741 10.5847 9.91352 10.5847ZM9.30935 8.12773H10.5177C10.5177 7.76481 10.5514 7.49322 10.6189 7.31296C10.6864 7.13271 10.8352 6.93449 11.0652 6.71831C11.3536 6.44385 11.6132 6.16608 11.844 5.88498C12.0748 5.60388 12.1902 5.25137 12.1902 4.82746C12.1902 4.19582 11.98 3.69069 11.5595 3.31206C11.139 2.93344 10.5852 2.74412 9.89802 2.74412C9.36729 2.74412 8.89358 2.8926 8.47692 3.18954C8.06025 3.4865 7.77024 3.89446 7.6069 4.41344L8.69023 4.86415C8.78413 4.55134 8.93872 4.31077 9.154 4.14244C9.36928 3.97412 9.61731 3.88996 9.89811 3.88996C10.2227 3.88996 10.4845 3.9794 10.6835 4.15829C10.8824 4.33719 10.9819 4.56916 10.9819 4.85419C10.9819 5.14745 10.8743 5.40244 10.659 5.61915C10.4437 5.83585 10.218 6.05641 9.9819 6.28081C9.69627 6.5453 9.51277 6.79545 9.4314 7.03127C9.35004 7.26708 9.30935 7.63256 9.30935 8.12773ZM4.95835 13.3388C4.47942 13.3388 4.07149 13.1703 3.73456 12.8334C3.39765 12.4965 3.22919 12.0885 3.22919 11.6096V1.72919C3.22919 1.25026 3.39765 0.842326 3.73456 0.505395C4.07149 0.168465 4.47942 0 4.95835 0H14.8388C15.3177 0 15.7256 0.168465 16.0626 0.505395C16.3995 0.842326 16.568 1.25026 16.568 1.72919V11.6096C16.568 12.0885 16.3995 12.4965 16.0626 12.8334C15.7256 13.1703 15.3177 13.3388 14.8388 13.3388H4.95835ZM4.95835 11.6096H14.8388V1.72919H4.95835V11.6096ZM1.72919 16.5679C1.25026 16.5679 0.842326 16.3995 0.505396 16.0626C0.168465 15.7256 0 15.3177 0 14.8388V3.22919H1.72919V14.8388H13.3388V16.5679H1.72919Z" fill="#0073E6"/>
</svg>
