<svg width="18" height="18" viewBox="0 0 18 18" fill="none" xmlns="http://www.w3.org/2000/svg">
<path d="M10.6296 11.3007C10.8657 11.3007 11.0636 11.2209 11.2233 11.0612C11.3831 10.9014 11.4629 10.7035 11.4629 10.4674C11.4629 10.2313 11.3831 10.0334 11.2233 9.87366C11.0636 9.71394 10.8657 9.63408 10.6296 9.63408C10.3935 9.63408 10.1956 9.71394 10.0358 9.87366C9.87611 10.0334 9.79625 10.2313 9.79625 10.4674C9.79625 10.7035 9.87611 10.9014 10.0358 11.0612C10.1956 11.2209 10.3935 11.3007 10.6296 11.3007ZM10.0254 8.84376H11.2338C11.2338 8.48085 11.2675 8.20926 11.335 8.02899C11.4024 7.84874 11.5512 7.65053 11.7813 7.43435C12.0696 7.15989 12.3292 6.88211 12.5601 6.60101C12.7909 6.31992 12.9063 5.96741 12.9063 5.54349C12.9063 4.91185 12.6961 4.40672 12.2756 4.0281C11.8551 3.64947 11.3013 3.46016 10.6141 3.46016C10.0834 3.46016 9.60965 3.60863 9.19298 3.90557C8.77631 4.20253 8.48631 4.6105 8.32296 5.12947L9.40629 5.58018C9.5002 5.26737 9.65479 5.0268 9.87006 4.85847C10.0853 4.69015 10.3334 4.60599 10.6142 4.60599C10.9388 4.60599 11.2006 4.69544 11.3995 4.87432C11.5985 5.05323 11.698 5.28519 11.698 5.57022C11.698 5.86348 11.5903 6.11847 11.375 6.33518C11.1598 6.55189 10.9341 6.77244 10.698 6.99685C10.4123 7.26133 10.2288 7.51149 10.1475 7.7473C10.0661 7.98311 10.0254 8.3486 10.0254 8.84376ZM5.67442 14.0548C5.19549 14.0548 4.78756 13.8863 4.45063 13.5494C4.11371 13.2125 3.94525 12.8046 3.94525 12.3256V2.44522C3.94525 1.96629 4.11371 1.55836 4.45063 1.22143C4.78756 0.884499 5.19549 0.716034 5.67442 0.716034H15.5548C16.0338 0.716034 16.4417 0.884499 16.7786 1.22143C17.1156 1.55836 17.284 1.96629 17.284 2.44522V12.3256C17.284 12.8046 17.1156 13.2125 16.7786 13.5494C16.4417 13.8863 16.0338 14.0548 15.5548 14.0548H5.67442ZM5.67442 12.3256H15.5548V2.44522H5.67442V12.3256ZM2.44525 17.284C1.96632 17.284 1.55839 17.1155 1.22146 16.7786C0.88453 16.4417 0.716064 16.0337 0.716064 15.5548V3.94522H2.44525V15.5548H14.0548V17.284H2.44525Z" fill="#1C4980"/>
</svg>
